<?xml version="1.0" standalone="no"?>
<!DOCTYPE svg PUBLIC "-//W3C//DTD SVG 20010904//EN"
 "http://www.w3.org/TR/2001/REC-SVG-20010904/DTD/svg10.dtd">
<svg version="1.0" xmlns="http://www.w3.org/2000/svg"
 width="512.000000pt" height="512.000000pt" viewBox="0 0 512.000000 512.000000"
 preserveAspectRatio="xMidYMid meet">

<g transform="translate(0.000000,512.000000) scale(0.100000,-0.100000)"
fill="#000000" stroke="none">
<path d="M830 4988 c-49 -14 -97 -53 -120 -98 -20 -39 -20 -62 -20 -2330 0
-2268 0 -2291 20 -2330 24 -47 71 -84 125 -99 56 -15 3394 -15 3450 0 54 15
101 52 125 99 20 39 20 62 20 2330 0 2268 0 2291 -20 2330 -24 47 -71 84 -125
99 -53 14 -3404 14 -3455 -1z m3218 -380 c9 -9 12 -179 12 -703 l0 -690 -205
3 c-312 5 -305 12 -305 -297 l0 -209 -217 -4 c-234 -3 -243 -5 -281 -60 -15
-20 -17 -72 -20 -453 -2 -236 0 -450 3 -474 5 -32 16 -54 40 -78 l33 -33 221
0 221 0 32 29 33 29 3 226 3 226 220 0 219 0 0 -299 0 -300 -226 -3 -226 -3
-29 -33 -29 -32 0 -220 0 -220 -467 0 c-503 0 -497 0 -537 -53 -20 -27 -21
-41 -21 -243 l0 -214 -220 0 -220 0 0 469 c0 461 0 470 -21 498 -40 53 -34 53
-536 53 l-468 0 0 1538 c0 1183 3 1541 12 1550 17 17 2959 17 2976 0z m-1
-1480 c4 -7 8 -104 8 -215 l1 -203 -218 0 -218 0 0 196 c0 115 4 203 10 215
10 18 23 19 210 19 148 0 201 -3 207 -12z m-507 -713 l0 -215 -215 0 -215 0 0
203 c0 145 3 206 12 215 9 9 70 12 215 12 l203 0 0 -215z m515 7 c0 -191 -1
-204 -20 -218 -16 -12 -57 -14 -215 -12 l-195 3 -1 210 c0 116 1 213 4 218 2
4 99 6 215 5 l212 -3 0 -203z m-507 -501 c2 -161 0 -198 -13 -217 -15 -24 -17
-24 -205 -24 -158 0 -191 3 -204 16 -14 13 -16 47 -16 213 0 109 2 200 4 202
3 2 101 4 218 4 l213 0 3 -194z m-2055 -543 c7 -102 8 -286 1 -331 l-6 -37
-211 2 -212 3 1 204 c1 187 2 205 19 217 14 11 65 14 211 14 l192 0 5 -72z
m495 56 c22 -15 22 -20 22 -220 l0 -204 -215 0 -215 0 0 220 0 220 193 0 c158
0 197 -3 215 -16z m2052 -4 c19 -19 20 -31 18 -218 l-3 -197 -217 -3 -218 -2
0 204 c0 200 0 205 22 220 18 13 56 16 200 16 165 0 179 -1 198 -20z m-2543
-715 l0 -215 -201 0 c-111 0 -207 4 -215 9 -11 7 -15 52 -17 215 l-3 206 218
0 218 0 0 -215z m513 12 c0 -145 -3 -206 -12 -215 -9 -9 -70 -12 -215 -12
l-203 0 0 215 0 215 215 0 215 0 0 -203z m1020 -12 l0 -215 -203 0 c-145 0
-206 3 -215 12 -17 17 -17 389 0 406 9 9 70 12 215 12 l203 0 0 -215z m510 0
l0 -215 -215 0 -215 0 0 215 0 215 215 0 215 0 0 -215z m518 10 c-2 -170 -6
-207 -18 -215 -8 -5 -106 -10 -217 -10 l-203 0 0 215 0 215 221 0 220 0 -3
-205z"/>
<path d="M2068 3973 c-61 -38 -58 9 -58 -1048 0 -1061 -3 -1007 60 -1040 45
-23 430 -22 471 2 62 37 60 -15 57 1057 l-3 976 -33 32 -32 33 -218 3 c-191 2
-220 0 -244 -15z m442 -73 c5 -8 10 -106 10 -217 l0 -203 -215 0 -215 0 0 210
c0 209 0 211 23 220 12 5 104 8 205 7 150 -2 184 -5 192 -17z m10 -715 l0
-215 -215 0 -215 0 0 215 0 215 215 0 215 0 0 -215z m0 -510 l0 -215 -215 0
-215 0 0 215 0 215 215 0 215 0 0 -215z m0 -505 c0 -197 -1 -210 -19 -220 -12
-6 -94 -10 -196 -10 -102 0 -184 4 -196 10 -18 10 -19 23 -19 220 l0 210 215
0 215 0 0 -210z"/>
</g>
</svg>
